<svg xmlns="http://www.w3.org/2000/svg" fill="none" viewBox="0 0 600 296">
  <path fill="#fff" d="M0 0h600v296H0z"/>
  <path stroke="#4285F4" stroke-linecap="round" stroke-linejoin="round" stroke-miterlimit="10" stroke-width="2.956" d="M295.996 112.607v36.366M291.993 188.508c-6.339.334-23.021 3.336-32.029 11.344-7.84 7.006-9.675 10.008-15.68 21.352"/>
  <path fill="#8AB4F8" d="M328.692 240.388c-2.335.667-5.338 1.167-7.506 2.001-3.504 1.335-6.173 2.002-8.008 4.004 3.837.667 4.838 3.336 7.507 6.339 1.502 1.668 1.168 2.169 1.501 4.337.334 2.169.501 3.837-1 5.505 2.001 1.001 3.836 6.506 3.836 8.841 0 2.336-1.501 4.504-3.503 5.505.834 1.502 1.668 3.003 2.669 4.504.167.334.334.668.668.834.166.167.5 0 .667 0 20.518-1.334 36.199-4.504 54.215-14.346.5-.333 1.168-.667 1.168-1.334 0-.501-.167-.834-.501-1.168-7.173-9.675-15.18-18.516-23.855-26.69-2.669-2.503-3.669-3.17-7.173-2.002-3.002 1.001-4.337 1.001-7.506 1.501-6.339.667-7.173.334-13.179 2.169zM358.886 108.77c-.167.167-.334.501-.501.667-.166.167-.5.167-.667.167-3.67.334-7.173 0-10.843.668-.5.166-1.001.333-1.334.667-.668.667-.167 1.835.166 2.669.501 1.334.834 2.669 1.502 3.837 2.335 5.338 8.007 8.507 13.512 10.175 7.34 2.336 15.347 2.669 22.52 0s13.178-8.841 14.68-16.348a78.02 78.02 0 00-15.181-2.502 39.074 39.074 0 01-3.336-9.675c.167 1.001-11.51 1.334-12.511 1.334-.667 0-2.169-.5-2.669-.166-.667.333-1.335 2.001-1.668 2.669-1.335 2.001-2.502 4.003-3.67 5.838z"/>
  <path fill="#D2E3FC" d="M296.497 179.667c-1.335 3.169-2.836 6.506-4.17 9.675 5.338 3.336 12.01 4.671 18.182 3.17 1.335-.334 2.669-.834 3.837-1.502.501-.333.834-.5 1.168-1.001.834-1.167 0-2.835-.667-4.003-1.168-2.169-1.835-4.504-2.169-6.84-2.669.834-5.505 1.669-8.174 1.835-2.669.334-5.672.167-8.007-1.334z"/>
  <path stroke="#4285F4" stroke-linecap="round" stroke-linejoin="round" stroke-miterlimit="10" stroke-width="2.956" d="M268.639 72.738l-4.838-15.514-18.016-2.002s-6.005 14.513-6.005 15.014"/>
  <path fill="#fff" stroke="#4285F4" stroke-linecap="round" stroke-linejoin="round" stroke-miterlimit="10" stroke-width="2.956" d="M256.128 60.56c10.042 0 18.183-8.14 18.183-18.182 0-10.042-8.141-18.183-18.183-18.183s-18.183 8.14-18.183 18.183c0 10.042 8.141 18.183 18.183 18.183z"/>
  <path stroke="#4285F4" stroke-linecap="round" stroke-linejoin="round" stroke-miterlimit="10" stroke-width="2.956" d="M258.797 47.716c1.001 1.668 2.836 2.836 4.837 2.836 2.002 0 4.004-1.001 4.671-2.836"/>
  <path fill="#4285F4" d="M269.139 31.034c-2.335-4.003-6.839-6.172-11.343-6.339-4.504-.167-8.508-.667-12.345 1.835-2.335 1.502-4.837 5.505-6.506 7.84-.834 1.168-1.501 2.503-2.001 4.004-.501 2.169.166 1.835 2.001 1.668 6.673-.5 13.346-2.002 19.685-4.337 3.67-1.334 7.173-2.836 10.509-4.67z"/>
  <path fill="#4285F4" d="M251.79 27.531c-1.835.334-3.836 3.503-6.172 4.004.334 0-2.836-3.503-.834-5.005 2.002-1.501 4.504-2.335 6.673-3.17 2.669-1 5.505-2.001 8.174-3.169 2.669-1 5.338-2.335 8.007-3.336 1.168-.5 2.335-.834 3.336-1.001 1.335-.334 2.836-.5 4.337-.167 1.335.334 2.669 1.335 3.17 2.836.5 1.835-.501 3.67-1.668 5.005 1.835-.5 3.67-.5 5.505-.334 1 .167 2.168.5 2.835 1.335.668.834.668 2.001.501 3.169-.667 4.337-4.504 7.34-8.174 10.009-.167.167-2.002 1-2.335 1-.501 0-1.835-4.003-2.836-5.17-4.338-5.005-6.006-8.008-20.519-6.006z"/>
  <path fill="#8AB4F8" d="M344.873 111.606s1.502 18.183 25.356 18.183c23.855 0 26.691-18.016 26.691-18.016"/>
  <path stroke="#4285F4" stroke-linecap="round" stroke-linejoin="round" stroke-miterlimit="10" stroke-width="2.956" d="M344.873 111.606s1.502 18.183 25.356 18.183c23.855 0 26.691-18.016 26.691-18.016"/>
  <path stroke="#4285F4" stroke-linecap="round" stroke-linejoin="round" stroke-miterlimit="10" stroke-width="2.82" d="M359.887 109.104s-53.882-5.672-65.225 61.388"/>
  <path stroke="#4285F4" stroke-linecap="round" stroke-linejoin="round" stroke-miterlimit="10" stroke-width="2.956" d="M359.887 109.104l5.171-11.677"/>
  <path fill="#8AB4F8" stroke="#4285F4" stroke-linecap="round" stroke-linejoin="round" stroke-miterlimit="10" stroke-width="3.053" d="M371.23 101.097c8.752 0 15.848-7.095 15.848-15.848 0-8.752-7.096-15.847-15.848-15.847s-15.847 7.095-15.847 15.847c0 8.753 7.095 15.848 15.847 15.848z"/>
  <path stroke="#4285F4" stroke-linecap="round" stroke-linejoin="round" stroke-miterlimit="10" stroke-width="2.956" d="M372.565 89.086c-1.001 1.835-3.003 3.17-5.171 3.17-2.169 0-4.171-1.168-5.005-3.17"/>
  <path fill="#4285F4" d="M385.409 78.743h-29.192l4.003-3.836 7.841-5.505 6.005.167 6.839 4.504 4.504 4.67zM371.731 62.896c2.335 2.335 3.002 7.173 5.838 8.508 3.003 1.334 7.006-1.502 10.176-1.502 3.169 0 7.006 3.003 10.009 1.835 3.003-1.167 3.67-6.005 6.172-8.174 2.335-2.335 7.173-3.002 8.508-5.838 1.334-3.003-1.502-7.007-1.502-10.176 0-3.17 3.003-7.006 1.835-10.009-1.167-3.003-6.005-3.67-8.174-6.172-2.335-2.335-3.002-7.173-5.838-8.508-3.003-1.334-7.007 1.502-10.176 1.502-3.17 0-7.006-3.003-10.009-1.835-3.003 1.167-3.67 6.005-6.172 8.174-2.336 2.335-7.173 3.002-8.508 5.838-1.334 3.003 1.502 7.006 1.502 10.176s-3.003 7.006-1.835 10.009c1.001 3.003 5.838 3.67 8.174 6.172z"/>
  <path stroke="#4285F4" stroke-linecap="round" stroke-linejoin="round" stroke-miterlimit="10" stroke-width="2.956" d="M269.306 268.913c15.681 2.669 31.862 5.505 44.54 15.014 1.334 1 2.502 2.168 2.669 3.669.166 2.002-1.669 3.67-3.67 4.171-2.002.333-4.004-.167-5.839-.667-17.182-5.005-34.531-7.841-52.213-11.511-28.692-6.172-58.219-18.516-80.572-37.867-32.195-27.691-34.531-78.737-18.35-115.603 14.513-33.196 44.707-58.886 82.407-56.717 3.503 5.171 9.842 8.841 16.181 9.175 6.339.166 12.345-2.336 16.348-7.173 10.176.667 29.86 6.505 38.368 12.177 8.341 5.338 18.016 17.683 21.853 31.361"/>
  <path fill="#D2E3FC" stroke="#4285F4" stroke-linecap="round" stroke-linejoin="round" stroke-miterlimit="10" stroke-width="2.956" d="M304.504 183.003c8.937 0 16.181-7.244 16.181-16.181 0-8.937-7.244-16.181-16.181-16.181-8.937 0-16.181 7.244-16.181 16.181 0 8.937 7.244 16.181 16.181 16.181z"/>
  <path stroke="#4285F4" stroke-linecap="round" stroke-linejoin="round" stroke-miterlimit="10" stroke-width="2.956" d="M294.495 167.99a5.267 5.267 0 003.67 2.168c1.501.167 3.003-.5 4.003-1.668"/>
  <path fill="#4285F4" stroke="#4285F4" stroke-linecap="round" stroke-linejoin="round" stroke-miterlimit="10" stroke-width="2.956" d="M304.17 161.15l16.015 3.337c-.334-3.337-2.169-6.84-4.504-9.175-2.336-2.336-5.505-3.837-8.842-4.337-1.835-.167-7.173 0-8.507 1.334-1.168 1.168 2.002 3.17 2.836 4.504 1.167 1.335 3.002 2.669 3.002 4.337z"/>
  <path stroke="#4285F4" stroke-linecap="round" stroke-linejoin="round" stroke-miterlimit="10" stroke-width="2.956" d="M291.993 188.675l3.169-6.84"/>
  <path fill="#255FDB" d="M303.67 151.975c-2.335-3.67-4.17-6.839-7.674-9.842-4.17-3.67-10.342-5.505-13.678-2.001l-.167.166c-1.668 1.835-2.002 4.838-.834 7.841.667 1.501 1.501 2.836 2.335 4.17l4.671 7.674 23.02 4.17-7.673-12.178z"/>
  <path fill="#D2E3FC" d="M291.993 188.675c.834 1.668 2.335 2.169 4.17 3.003 3.503 1.501 7.507 2.001 11.177 1.835 3.503-.334 7.673-2.002 10.175-4.338"/>
  <path stroke="#4285F4" stroke-linecap="round" stroke-linejoin="round" stroke-miterlimit="10" stroke-width="2.956" d="M291.993 188.675c.834 1.668 2.335 2.169 4.17 3.003 3.503 1.501 7.507 2.001 11.177 1.835 3.503-.334 7.673-2.002 10.175-4.338M313.679 181.001l2.502 7.173M217.76 113.274c-7.674 28.192-12.344 46.542-19.517 73.733 5.671 3.503 17.015 12.678 28.525 20.852 8.341 6.005 20.852 16.014 31.361 23.854-4.003 13.345-10.676 32.029-14.846 45.374M313.846 283.927c2.168 1.501 7.84 2.001 9.008-.334.834-1.835.5-4.004-.501-5.672-1.001-1.668-2.502-3.002-4.17-4.17-13.512-10.51-28.526-14.847-45.541-17.516M276.145 245.225c7.841 1.668 15.848 3.503 23.521 6.173 7.674 2.669 15.014 6.505 21.019 12.01 1.835 1.668 3.503 3.503 4.17 5.839.501 2.335-.5 5.338-2.835 6.005"/>
  <path stroke="#4285F4" stroke-linecap="round" stroke-linejoin="round" stroke-miterlimit="10" stroke-width="2.956" d="M321.186 262.407c1.334-1.668 1.668-3.836 1.167-5.838-.5-2.002-1.668-3.837-3.002-5.338-5.172-5.672-12.845-7.841-20.018-9.842-10.343-2.836-20.852-5.672-31.528-7.674-2.836-.5-5.839-1.001-8.675-1.501M322.854 283.593c38.868-3.67 70.563-17.182 93.917-43.706 11.844-13.512 19.517-30.36 22.853-48.043 6.339-33.196-1.167-65.058-36.365-78.903-5.672-2.169-20.352-3.67-20.352-3.67l-3.336-9.175"/>
  <path stroke="#4285F4" stroke-linecap="round" stroke-linejoin="round" stroke-miterlimit="10" stroke-width="2.956" d="M351.379 231.713c1.835 3.837 7.173 8.174 10.009 11.177 6.506 6.673 14.18 15.847 19.351 23.521M351.379 231.713c3.003-3.336 46.542-31.361 45.541-76.401"/>
  <path fill="#fff" d="M362.389 222.538c-6.672-14.012-11.844-22.186-22.52-27.357-5.672-2.669-14.012-5.505-22.687-6.506"/>
  <path stroke="#4285F4" stroke-linecap="round" stroke-linejoin="round" stroke-miterlimit="10" stroke-width="2.956" d="M362.389 222.538c-6.672-14.012-11.844-22.186-22.52-27.357-5.672-2.669-14.012-5.505-22.687-6.506M352.547 235.216c-7.006 2.669-13.846 2.669-21.352 4.671-8.508 2.169-11.844 3.337-18.017 6.506M321.185 253.566c7.507-3.837 14.18-5.672 22.687-6.339M321.185 262.407c7.007-3.503 17.182-6.172 24.356-7.173M326.023 270.915a169.786 169.786 0 0121.853-6.005"/>
  <path stroke="#4285F4" stroke-linecap="round" stroke-linejoin="round" stroke-miterlimit="10" stroke-width="2.986" d="M209.086 145.97c.667 7.674 1.834 16.014 3.336 24.022l-6.339 22.353"/>
  <path stroke="#4285F4" stroke-linecap="round" stroke-linejoin="round" stroke-miterlimit="10" stroke-width="2.956" d="M212.755 169.324h75.735"/>
  <path stroke="#34A853" stroke-linecap="round" stroke-linejoin="round" stroke-miterlimit="10" stroke-width="3.336" d="M102.824 40.71c6.005-6.006 15.847-5.839 21.686.333l25.189 25.69c6.005 6.005 5.839 15.847-.334 21.686-6.005 6.005-15.847 5.838-21.686-.334l-25.189-25.69a15.308 15.308 0 01.334-21.685z"/>
  <path fill="#EA4335" d="M118.004 69.235l-24.522 6.673c-2.669.667-3.503 4.003-1.501 5.838l18.016 18.016c2.002 1.835 5.171 1.001 5.839-1.668l6.505-24.522a3.542 3.542 0 00-4.337-4.337z"/>
  <path fill="#4285F4" d="M499.845 89.92c.334 1.835.333 3.837.167 5.839-1.168 12.177-12.178 21.018-24.189 19.851-12.01-1.168-21.018-12.178-19.851-24.189 1.168-12.01 12.178-21.018 24.189-19.85 10.175 1 18.016 8.674 19.684 18.35z"/>
  <path fill="#FFBA00" d="M87.977 131.124c.334.667.5 1.501.668 2.168.667 4.838-2.67 9.175-7.34 9.842-4.838.668-9.175-2.669-9.842-7.34-.668-4.837 2.669-9.174 7.34-9.842 3.836-.667 7.673 1.668 9.174 5.172z"/>
  <path fill="#EA4335" d="M118.004 69.235l-24.522 6.673c-2.669.667-3.503 4.003-1.501 5.838l18.016 18.016c2.002 1.835 5.171 1.001 5.839-1.668l6.505-24.522a3.542 3.542 0 00-4.337-4.337z"/>
  <path stroke="#34A853" stroke-linecap="round" stroke-linejoin="round" stroke-miterlimit="10" stroke-width="3.336" d="M102.824 40.71c6.005-6.006 15.847-5.839 21.686.333l25.189 25.69c6.005 6.005 5.839 15.847-.334 21.686-6.005 6.005-15.847 5.838-21.686-.334l-25.189-25.69a15.308 15.308 0 01.334-21.685z"/>
  <path stroke="#fff" stroke-linecap="round" stroke-linejoin="round" stroke-miterlimit="10" stroke-width="3.336" d="M491.004 135.294c3.169 1.501 6.672 2.335 10.008 3.336 4.671 1.502 8.508 4.671 10.677 9.008 1.167 2.336 2.335 4.838 3.836 7.173 5.339 7.841 16.348 9.676 23.355 3.17 6.339-5.672 6.839-16.348.5-22.187-2.836-2.669-6.673-4.337-9.842-6.839-3.336-2.669-5.672-6.172-6.673-10.343-.834-3.503-1.167-7.173-2.502-10.676-1.168-3.336-3.169-6.339-5.838-8.841-8.008-7.173-20.185-7.507-28.526-.834-10.009 8.007-11.01 22.687-2.502 32.028 2.335 2.336 4.837 3.837 7.507 5.005z"/>
  <path stroke="#FBBC05" stroke-linecap="round" stroke-linejoin="round" stroke-miterlimit="10" stroke-width="3.336" d="M491.004 135.294c3.169 1.501 6.672 2.335 10.008 3.336 4.671 1.502 8.508 4.671 10.677 9.008 1.167 2.336 2.335 4.838 3.836 7.173 5.339 7.841 16.348 9.676 23.355 3.17 6.339-5.672 6.839-16.348.5-22.187-2.836-2.669-6.673-4.337-9.842-6.839-3.336-2.669-5.672-6.172-6.673-10.343-.834-3.503-1.167-7.173-2.502-10.676-1.168-3.336-3.169-6.339-5.838-8.841-8.008-7.173-20.185-7.507-28.526-.834-10.009 8.007-11.01 22.687-2.502 32.028 2.335 2.336 4.837 3.837 7.507 5.005z"/>
  <path stroke="#fff" stroke-linecap="round" stroke-linejoin="round" stroke-miterlimit="10" stroke-width="3.336" d="M167.048 50.718l-11.343-11.343c-1.335-1.334-1.335-3.67 0-5.004l11.343-11.344c1.335-1.334 3.67-1.334 5.005 0l11.343 11.344c1.335 1.334 1.335 3.67 0 5.004l-11.343 11.343c-1.335 1.335-3.67 1.335-5.005 0z"/>
</svg>
