<svg xmlns="http://www.w3.org/2000/svg" width="250" height="628" fill="none"><path d="M44.8 159.201l-8.3 43.1c-.5 2.4 1.9 4.4 4.2 3.6l41.5-14.3c2.3-.8 2.9-3.8 1.1-5.4l-33.3-28.8c-1.8-1.6-4.7-.6-5.2 1.8z" fill="#FBBC05"/><path d="M69.4 46.2L52.8 41c-1.7-.5-3.5.4-4 2.1l-5.2 16.6c-.5 1.7.4 3.5 2.1 4l16.6 5.2c1.7.5 3.5-.4 4-2.1l5.2-16.6c.5-1.7-.4-3.5-2.1-4z" stroke="#E8EAED" stroke-width="2" stroke-miterlimit="10"/><path d="M45.2 281.3a8.6 8.6 0 10-.001-17.2 8.6 8.6 0 000 17.2z" fill="#E8EAED"/><path d="M122 164.6a8.6 8.6 0 100-17.2 8.6 8.6 0 000 17.2z" fill="#34A853"/><path d="M60.5 536.9L22.7 528c-1.7-.4-3.4.7-3.8 2.4L10 568.1c-.4 1.7.7 3.4 2.4 3.8l37.8 8.9c1.7.4 3.4-.7 3.8-2.4l8.9-37.8c.4-1.6-.7-3.3-2.4-3.7z" fill="#FBBC05"/><path d="M116.101 351.6l-17.7 11.8c-1 .6-1.5 1.7-1.4 2.9l1.4 21.2c.1 1.1.7 2.2 1.8 2.7l19.1 9.5c1 .5 2.2.4 3.2-.2l17.7-11.8c1-.6 1.5-1.7 1.4-2.9l-1.4-21.2c-.1-1.1-.7-2.2-1.8-2.7l-19.1-9.5c-1-.5-2.2-.5-3.2.2z" fill="#F1F3F4"/><path d="M44.5 413.399c3.6 4.8 2.6 11.6-2.2 15.3-4.8 3.7-11.6 2.6-15.3-2.2-3.6-4.8-2.6-11.6 2.2-15.3 4.8-3.7 11.7-2.6 15.3 2.2zm-23.2-12.9c-10.7 8-12.9 23.2-4.9 33.9s23.2 12.9 33.9 4.9 12.9-23.2 4.9-33.9-23.2-12.9-33.9-4.9z" fill="#EA4335"/><path d="M91.7 283.3l-28.9 36.4c-1.1 1.4-.9 3.4.5 4.5l15.1 12c1.4 1.1 3.4.9 4.5-.5l28.9-36.4c1.1-1.4.9-3.4-.5-4.5l-15.1-12c-1.4-1.1-3.4-.9-4.5.5z" fill="#4285F4"/><path d="M144 401.7c7.124 0 12.9-5.775 12.9-12.9 0-7.124-5.776-12.9-12.9-12.9-7.125 0-12.9 5.776-12.9 12.9 0 7.125 5.775 12.9 12.9 12.9z" fill="#FBBC05"/><path d="M131.201 388.101c-.1 1.8.2 3.4.7 5l8.2-5.5c1-.6 1.5-1.7 1.4-2.9l-.5-8.4c-5.4 1.3-9.5 6-9.8 11.8z" fill="#fff"/><path d="M98.2 502.3c6.101-7.3 5.101-18.2-2.2-24.3-2.6-2.2-5.7-3.499-8.8-3.899l-4.4-.6c-4.3-.5-8.2-2.9-10.5-6.5l-2.9-4.3c-.6-.8-1.3-1.6-2.1-2.2-5.2-4.3-12.9-3.7-17.3 1.5S46.3 474.9 51.5 479.3c.8.7 1.7 1.2 2.5 1.6l4.7 2.1c4 1.7 7 5.101 8.3 9.201l1.3 4.199c1 3 2.8 5.8 5.4 8 7.5 6.2 18.4 5.2 24.5-2.1z" stroke="#E8EAED" stroke-width="2" stroke-miterlimit="10"/><path d="M20.7 538.299c-1.2-.3-2.4-.5-3.6-.6l-7.2 30.6c-.4 1.6.6 3.3 2.3 3.6l29.1 6.9c.6-1.5 1.1-3.1 1.5-4.7 3.8-16-6.1-32-22.1-35.8z" fill="#FCC934"/><path d="M191 96.8c6.7-2.3 10.3-9.6 8.1-16.3-2.2-6.7-9.6-10.3-16.3-8.1l-32 10.8c-6.7 2.3-10.3 9.6-8.1 16.3 2.2 6.7 9.6 10.3 16.3 8.1l32-10.8z" fill="#F1F3F4"/></svg>