<svg xmlns="http://www.w3.org/2000/svg" fill="none" viewBox="0 0 1200 592">
  <path fill="#fff" d="M0 0h1200v592H0z"/>
  <path stroke="#4285F4" stroke-linecap="round" stroke-linejoin="round" stroke-miterlimit="10" stroke-width="5.911" d="M591.993 225.214v72.732M583.986 377.016c-12.678.667-46.042 6.673-64.058 22.687-15.68 14.013-19.35 20.018-31.361 42.705"/>
  <path fill="#8AB4F8" d="M657.385 480.775c-4.671 1.335-10.677 2.336-15.014 4.004-7.006 2.669-12.344 4.004-16.014 8.007 7.673 1.335 9.675 6.673 15.013 12.678 3.003 3.336 2.336 4.337 3.003 8.675.667 4.337 1.001 7.673-2.002 11.009 4.004 2.002 7.674 13.012 7.674 17.683 0 4.671-3.003 9.008-7.007 11.01 1.669 3.002 3.337 6.005 5.339 9.008.333.667.667 1.334 1.334 1.668.334.333 1.001 0 1.335 0 41.036-2.669 72.398-9.008 108.43-28.692 1.001-.668 2.335-1.335 2.335-2.67 0-1-.334-1.668-1.001-2.335-14.346-19.351-30.36-37.033-47.709-53.381-5.338-5.004-7.34-6.339-14.346-4.003-6.006 2.001-8.675 2.001-15.014 3.002-12.678 1.335-14.346.667-26.356 4.337zM717.772 217.54c-.334.334-.668 1.001-1.001 1.335-.334.334-1.001.334-1.335.334-7.34.667-14.346 0-21.686 1.334-1.001.334-2.002.667-2.669 1.335-1.334 1.334-.333 3.67.334 5.338 1.001 2.669 1.668 5.338 3.002 7.673 4.671 10.676 16.015 17.015 27.025 20.352 14.679 4.671 30.694 5.338 45.04 0s26.357-17.683 29.359-32.696c-10.009-2.669-20.018-4.337-30.36-5.005-3.003-6.005-5.338-12.678-6.673-19.35.334 2.002-23.02 2.669-25.022 2.669-1.335 0-4.337-1.001-5.338-.334-1.335.668-2.669 4.004-3.337 5.338-2.669 4.004-5.004 8.008-7.339 11.677z"/>
  <path fill="#D2E3FC" d="M592.994 359.334c-2.669 6.339-5.672 13.011-8.341 19.35 10.676 6.673 24.021 9.342 36.366 6.339 2.669-.667 5.338-1.668 7.673-3.002 1.001-.668 1.668-1.001 2.336-2.002 1.668-2.336 0-5.672-1.335-8.007-2.335-4.338-3.67-9.008-4.337-13.679-5.338 1.668-11.01 3.336-16.348 3.67-5.338.667-11.343.333-16.014-2.669z"/>
  <path stroke="#4285F4" stroke-linecap="round" stroke-linejoin="round" stroke-miterlimit="10" stroke-width="5.911" d="M537.277 145.476l-9.675-31.027-36.032-4.004s-12.011 29.026-12.011 30.027"/>
  <path fill="#fff" stroke="#4285F4" stroke-linecap="round" stroke-linejoin="round" stroke-miterlimit="10" stroke-width="5.911" d="M512.255 121.121c20.085 0 36.366-16.281 36.366-36.366 0-20.084-16.281-36.365-36.366-36.365-20.084 0-36.365 16.281-36.365 36.365 0 20.085 16.281 36.366 36.365 36.366z"/>
  <path stroke="#4285F4" stroke-linecap="round" stroke-linejoin="round" stroke-miterlimit="10" stroke-width="5.911" d="M517.593 95.432c2.002 3.336 5.672 5.671 9.676 5.671 4.003 0 8.007-2.001 9.341-5.671"/>
  <path fill="#4285F4" d="M538.278 62.069c-4.671-8.008-13.679-12.345-22.687-12.678-9.008-.334-17.015-1.335-24.689 3.67-4.67 3.002-9.675 11.01-13.011 15.68-1.668 2.335-3.003 5.005-4.004 8.007-1.001 4.337.334 3.67 4.004 3.337 13.345-1.001 26.69-4.004 39.368-8.675 7.34-2.669 14.346-5.672 21.019-9.341z"/>
  <path fill="#4285F4" d="M503.581 55.062c-3.67.668-7.674 7.007-12.345 8.007.668 0-5.671-7.006-1.668-10.009 4.004-3.002 9.008-4.67 13.345-6.339 5.339-2.001 11.01-4.003 16.348-6.338 5.338-2.002 10.677-4.671 16.015-6.673 2.335-1.001 4.67-1.668 6.672-2.002 2.669-.667 5.672-1 8.675-.333 2.669.667 5.338 2.669 6.339 5.671 1.001 3.67-1.001 7.34-3.337 10.01 3.67-1.002 7.34-1.002 11.01-.668 2.002.334 4.337 1 5.672 2.669 1.334 1.668 1.334 4.003 1.001 6.339-1.335 8.674-9.008 14.68-16.348 20.018-.334.333-4.004 2.001-4.671 2.001-1.001 0-3.67-8.007-5.672-10.342-8.674-10.009-12.01-16.014-41.036-12.01z"/>
  <path fill="#8AB4F8" d="M689.747 223.212s3.002 36.366 50.712 36.366c47.709 0 53.381-36.032 53.381-36.032"/>
  <path stroke="#4285F4" stroke-linecap="round" stroke-linejoin="round" stroke-miterlimit="10" stroke-width="5.911" d="M689.747 223.212s3.002 36.366 50.712 36.366c47.709 0 53.381-36.032 53.381-36.032"/>
  <path stroke="#4285F4" stroke-linecap="round" stroke-linejoin="round" stroke-miterlimit="10" stroke-width="5.639" d="M719.774 218.208s-107.763-11.344-130.45 122.776"/>
  <path stroke="#4285F4" stroke-linecap="round" stroke-linejoin="round" stroke-miterlimit="10" stroke-width="5.911" d="M719.774 218.208l10.342-23.354"/>
  <path fill="#8AB4F8" stroke="#4285F4" stroke-linecap="round" stroke-linejoin="round" stroke-miterlimit="10" stroke-width="6.106" d="M742.46 202.193c17.505 0 31.695-14.19 31.695-31.694 0-17.505-14.19-31.695-31.695-31.695-17.504 0-31.695 14.19-31.695 31.695 0 17.504 14.191 31.694 31.695 31.694z"/>
  <path stroke="#4285F4" stroke-linecap="round" stroke-linejoin="round" stroke-miterlimit="10" stroke-width="5.911" d="M745.13 178.172c-2.002 3.67-6.006 6.339-10.343 6.339s-8.341-2.335-10.009-6.339"/>
  <path fill="#4285F4" d="M770.819 157.487h-58.386l8.008-7.674 15.68-11.009 12.011.333 13.679 9.008 9.008 9.342zM743.461 125.792c4.671 4.671 6.006 14.346 11.677 17.015 6.006 2.669 14.013-3.002 20.352-3.002s14.012 6.005 20.018 3.669c6.005-2.335 7.34-12.01 12.344-16.347 4.671-4.671 14.346-6.006 17.015-11.678 2.669-6.005-3.003-14.012-3.003-20.351 0-6.339 6.006-14.013 3.67-20.018-2.335-6.005-12.01-7.34-16.347-12.344-4.671-4.671-6.006-14.346-11.678-17.015-6.005-2.67-14.012 3.002-20.351 3.002-6.339 0-14.013-6.005-20.018-3.67-6.005 2.336-7.34 12.011-12.344 16.348-4.671 4.671-14.346 6.006-17.015 11.677-2.669 6.006 3.002 14.013 3.002 20.352s-6.005 14.012-3.67 20.018c2.002 6.005 11.677 7.34 16.348 12.344z"/>
  <path stroke="#4285F4" stroke-linecap="round" stroke-linejoin="round" stroke-miterlimit="10" stroke-width="5.911" d="M538.612 537.826c31.361 5.338 63.723 11.01 89.079 30.027 2.669 2.002 5.005 4.337 5.338 7.34.334 4.003-3.336 7.34-7.34 8.341-4.003.667-8.007-.334-11.677-1.335-34.364-10.009-69.061-15.68-104.426-23.02-57.385-12.345-116.437-37.033-161.144-75.735-64.391-55.382-69.062-157.473-36.699-231.206 29.026-66.392 89.413-117.772 164.813-113.434 7.007 10.342 19.685 17.682 32.363 18.349 12.678.334 24.688-4.67 32.695-14.346 20.352 1.335 59.72 13.012 76.736 24.355 16.681 10.676 36.032 35.365 43.705 62.723"/>
  <path fill="#D2E3FC" stroke="#4285F4" stroke-linecap="round" stroke-linejoin="round" stroke-miterlimit="10" stroke-width="5.911" d="M609.008 366.006c17.873 0 32.362-14.489 32.362-32.362s-14.489-32.362-32.362-32.362-32.362 14.489-32.362 32.362 14.489 32.362 32.362 32.362z"/>
  <path stroke="#4285F4" stroke-linecap="round" stroke-linejoin="round" stroke-miterlimit="10" stroke-width="5.911" d="M588.99 335.98c1.668 2.335 4.337 4.003 7.34 4.337 3.003.333 6.005-1.001 8.007-3.337"/>
  <path fill="#4285F4" stroke="#4285F4" stroke-linecap="round" stroke-linejoin="round" stroke-miterlimit="10" stroke-width="5.911" d="M608.341 322.301l32.028 6.672c-.667-6.672-4.337-13.679-9.008-18.349-4.671-4.671-11.01-7.674-17.682-8.675-3.67-.333-14.346 0-17.015 2.669-2.336 2.336 4.003 6.339 5.671 9.008 2.336 2.669 6.006 5.338 6.006 8.675z"/>
  <path stroke="#4285F4" stroke-linecap="round" stroke-linejoin="round" stroke-miterlimit="10" stroke-width="5.911" d="M583.985 377.35l6.339-13.679"/>
  <path fill="#255FDB" d="M607.34 303.951c-4.671-7.34-8.341-13.679-15.347-19.684-8.341-7.34-20.685-11.01-27.358-4.004l-.333.334c-3.337 3.67-4.004 9.675-1.669 15.68 1.335 3.003 3.003 5.672 4.671 8.341l9.342 15.347 46.041 8.341-15.347-24.355z"/>
  <path fill="#D2E3FC" d="M583.985 377.35c1.669 3.336 4.671 4.337 8.341 6.005 7.006 3.003 15.014 4.004 22.354 3.67 7.006-.667 15.347-4.003 20.351-8.674"/>
  <path stroke="#4285F4" stroke-linecap="round" stroke-linejoin="round" stroke-miterlimit="10" stroke-width="5.911" d="M583.985 377.35c1.669 3.336 4.671 4.337 8.341 6.005 7.006 3.003 15.014 4.004 22.354 3.67 7.006-.667 15.347-4.003 20.351-8.674M627.358 362.003l5.004 14.346M435.52 226.549c-15.347 56.383-24.689 93.083-39.035 147.464 11.344 7.007 34.03 25.356 57.051 41.704 16.682 12.011 41.704 32.029 62.723 47.709-8.008 26.691-21.353 64.058-29.694 90.748M627.691 567.853c4.337 3.003 15.681 4.004 18.016-.667 1.669-3.67 1.001-8.007-1.001-11.344-2.001-3.336-5.004-6.005-8.34-8.34-27.024-21.019-57.051-29.694-91.082-35.032M552.291 490.451c15.68 3.336 31.694 7.006 47.041 12.344 15.347 5.338 30.027 13.012 42.038 24.021 3.67 3.337 7.006 7.007 8.341 11.678 1.001 4.67-1.001 10.676-5.672 12.01"/>
  <path stroke="#4285F4" stroke-linecap="round" stroke-linejoin="round" stroke-miterlimit="10" stroke-width="5.911" d="M642.371 524.815c2.669-3.337 3.337-7.674 2.336-11.677-1.001-4.004-3.337-7.674-6.006-10.677-10.342-11.343-25.689-15.68-40.035-19.684-20.686-5.672-41.704-11.343-63.057-15.347-5.671-1.001-11.677-2.002-17.349-3.003M645.707 567.186c77.736-7.34 141.126-34.364 187.834-87.412 23.688-27.024 39.035-60.72 45.708-96.085 12.678-66.393-2.335-130.116-72.732-157.808-11.343-4.337-40.703-7.34-40.703-7.34l-6.672-18.349"/>
  <path stroke="#4285F4" stroke-linecap="round" stroke-linejoin="round" stroke-miterlimit="10" stroke-width="5.911" d="M702.759 463.427c3.669 7.673 14.346 16.348 20.017 22.353 13.012 13.345 28.359 31.695 38.702 47.042M702.759 463.427c6.005-6.673 93.083-62.723 91.081-152.803"/>
  <path fill="#fff" d="M724.778 445.077c-13.345-28.025-23.688-44.373-45.04-54.716-11.343-5.338-28.025-11.009-45.374-13.011"/>
  <path stroke="#4285F4" stroke-linecap="round" stroke-linejoin="round" stroke-miterlimit="10" stroke-width="5.911" d="M724.778 445.077c-13.345-28.025-23.688-44.373-45.04-54.716-11.343-5.338-28.025-11.009-45.374-13.011M705.094 470.433c-14.013 5.338-27.692 5.338-42.705 9.341-17.015 4.338-23.688 6.673-36.032 13.012M642.371 507.132c15.013-7.673 28.359-11.343 45.374-12.678M642.371 524.815c14.012-7.007 34.364-12.345 48.71-14.346M652.046 541.83c14.347-5.005 29.026-9.008 43.706-12.011"/>
  <path stroke="#4285F4" stroke-linecap="round" stroke-linejoin="round" stroke-miterlimit="10" stroke-width="5.973" d="M418.171 291.94c1.335 15.347 3.67 32.029 6.673 48.043l-12.678 44.707"/>
  <path stroke="#4285F4" stroke-linecap="round" stroke-linejoin="round" stroke-miterlimit="10" stroke-width="5.911" d="M425.511 338.649h151.468"/>
  <path stroke="#34A853" stroke-linecap="round" stroke-linejoin="round" stroke-miterlimit="10" stroke-width="6.673" d="M205.648 81.42c12.011-12.012 31.695-11.678 43.372.666l50.378 51.38c12.011 12.01 11.677 31.694-.667 43.372-12.011 12.01-31.695 11.677-43.372-.668l-50.378-51.379c-11.677-12.011-11.677-31.361.667-43.372z"/>
  <path fill="#EA4335" d="M236.008 138.47l-49.043 13.345c-5.338 1.335-7.007 8.007-3.003 11.677l36.032 36.032c4.004 3.67 10.343 2.002 11.677-3.336l13.012-49.044c1.334-5.338-3.337-10.009-8.675-8.674z"/>
  <path fill="#4285F4" d="M999.69 179.84c.67 3.67.67 7.674.33 11.677-2.332 24.355-24.352 42.038-48.373 39.702-24.022-2.335-42.038-24.355-39.702-48.376 2.335-24.022 24.355-42.038 48.376-39.702 20.352 2.002 36.032 17.349 39.369 36.699z"/>
  <path fill="#FFBA00" d="M175.955 262.247c.667 1.335 1.001 3.003 1.334 4.337 1.335 9.676-5.338 18.35-14.679 19.685-9.676 1.334-18.35-5.339-19.685-14.68-1.334-9.676 5.339-18.35 14.68-19.684 7.674-1.335 15.347 3.336 18.35 10.342z"/>
  <path fill="#EA4335" d="M236.008 138.47l-49.043 13.345c-5.338 1.335-7.007 8.007-3.003 11.677l36.032 36.032c4.004 3.67 10.343 2.002 11.677-3.336l13.012-49.044c1.334-5.338-3.337-10.009-8.675-8.674z"/>
  <path stroke="#34A853" stroke-linecap="round" stroke-linejoin="round" stroke-miterlimit="10" stroke-width="6.673" d="M205.648 81.42c12.011-12.012 31.695-11.678 43.372.666l50.378 51.38c12.011 12.01 11.677 31.694-.667 43.372-12.011 12.01-31.695 11.677-43.372-.668l-50.378-51.379c-11.677-12.011-11.677-31.361.667-43.372z"/>
  <path stroke="#fff" stroke-linecap="round" stroke-linejoin="round" stroke-miterlimit="10" stroke-width="6.673" d="M982.007 270.588c6.339 3.003 13.345 4.671 20.013 6.672 9.35 3.003 17.02 9.342 21.36 18.017 2.33 4.67 4.67 9.675 7.67 14.346 10.68 15.68 32.7 19.35 46.71 6.339 12.68-11.344 13.68-32.696 1-44.373-5.67-5.338-13.35-8.675-19.68-13.679-6.68-5.338-11.35-12.344-13.35-20.685-1.67-7.006-2.33-14.346-5-21.353-2.34-6.672-6.34-12.678-11.68-17.682-16.02-14.346-40.37-15.013-57.052-1.668-20.018 16.014-22.019 45.374-5.004 64.057 4.671 4.671 9.675 7.673 15.013 10.009z"/>
  <path stroke="#FBBC05" stroke-linecap="round" stroke-linejoin="round" stroke-miterlimit="10" stroke-width="6.673" d="M982.007 270.588c6.339 3.003 13.345 4.671 20.013 6.672 9.35 3.003 17.02 9.342 21.36 18.017 2.33 4.67 4.67 9.675 7.67 14.346 10.68 15.68 32.7 19.35 46.71 6.339 12.68-11.344 13.68-32.696 1-44.373-5.67-5.338-13.35-8.675-19.68-13.679-6.68-5.338-11.35-12.344-13.35-20.685-1.67-7.006-2.33-14.346-5-21.353-2.34-6.672-6.34-12.678-11.68-17.682-16.02-14.346-40.37-15.013-57.052-1.668-20.018 16.014-22.019 45.374-5.004 64.057 4.671 4.671 9.675 7.673 15.013 10.009z"/>
  <path stroke="#fff" stroke-linecap="round" stroke-linejoin="round" stroke-miterlimit="10" stroke-width="6.673" d="M334.096 101.437L311.409 78.75c-2.669-2.669-2.669-7.34 0-10.009l22.687-22.687c2.669-2.669 7.34-2.669 10.009 0l22.687 22.687c2.669 2.67 2.669 7.34 0 10.01l-22.687 22.686c-2.669 2.669-7.34 2.669-10.009 0z"/>
</svg>
